# xmcd
#
# Track frame offsets:
#	150
#	17921
#	31867
#	47346
#	68885
#	83385
#	95201
#	110631
#	126323
#	144540
#	162958
#	177852
#	190952
#	206774
#
# Disc length: 3014 seconds
#
# Revision: 2
# Processed by: cddbd v1.5.2PL0 Copyright (c) Steve Scherf et al.
# Submitted via: audiograbber 1.83.01
#
DISCID=c00bc40e
DTITLE=диажояои - та йакутеяа паяадосиайа тяацоудиа мО 1
DYEAR=1900
DGENRE=Folk
TTITLE0=THALASSAKI MOY
TTITLE1=MES TOY AIGAIOY
TTITLE2=TOY PSARA O GIOS
TTITLE3=ARTEMWNAS
TTITLE4=SYRTOS ASIZIE
TTITLE5=PSARADES
TTITLE6=APO TA GLYKA SOY MATIA
TTITLE7=MIA SMYRNIA STO PARATHYRI
TTITLE8=POTAMOS
TTITLE9=TA PAIDIA THS GEITONIAS SOU
TTITLE10=POLITIKO SYRTO
TTITLE11=EXASA MANTILI
TTITLE12=WRAIA POYNAI THN AYGI
TTITLE13=SYLIBRIANO
EXTD=
EXTT0=
EXTT1=
EXTT2=
EXTT3=
EXTT4=
EXTT5=
EXTT6=
EXTT7=
EXTT8=
EXTT9=
EXTT10=
EXTT11=
EXTT12=
EXTT13=
PLAYORDER=
